<?xml version="1.0" encoding="utf-8"?>
<!-- Generator: Adobe Illustrator 23.0.0, SVG Export Plug-In . SVG Version: 6.00 Build 0)  -->
<svg version="1.1" id="图层_1" xmlns="http://www.w3.org/2000/svg" xmlns:xlink="http://www.w3.org/1999/xlink" x="0px" y="0px"
	 viewBox="0 0 256 256" style="enable-background:new 0 0 256 256;" xml:space="preserve">
<style type="text/css">
	.st0{fill:#60CEF4;}
	.st1{fill:#553DB7;}
	.st2{fill:#D14DE8;}
	.st3{fill:#4612A6;}
</style>
<g>
	<g>
		<path class="st0" d="M127,183c-27.1,0-49-21.9-49-49v-23c0-27.1,21.9-49,49-49s49,21.9,49,49v23C176,161.1,154.1,183,127,183z
			 M127,94c-9.4,0-17,7.6-17,17v23c0,9.4,7.6,17,17,17s17-7.6,17-17v-23C144,101.6,136.4,94,127,94z"/>
		<path class="st1" d="M144,134c0,9.4-7.6,17-17,17s-17-7.6-17-17v-9.1c0-8.8-7.2-16-16-16s-16,7.2-16,16v9.1c0,27.1,21.9,49,49,49
			c5.9,0,11.7-1.1,17.3-3.1c-0.2-0.9-0.3-1.9-0.3-2.9V134z"/>
		<path class="st2" d="M144.3,179.9c1.6,8.7,10,14.4,18.7,12.8c7.5-1.4,13-8,13.1-15.7v-43C176,154.4,163.3,172.6,144.3,179.9z"/>
		<path class="st3" d="M160,109c-8.8,0-16,7.2-16,16v52c0,1,0.1,1.9,0.3,2.9c19.1-7.2,31.7-25.5,31.7-45.9v-9
			C176,116.2,168.8,109,160,109z"/>
	</g>
</g>
</svg>
